<svg width="64" height="64" viewBox="0 0 64 64" fill="none" xmlns="http://www.w3.org/2000/svg">
<circle cx="32" cy="32" r="32" fill="white"/>
<path d="M23.3023 41.8027V21.6274H31.6387C31.8348 21.6274 32.087 21.6367 32.3952 21.6554C32.7035 21.6647 32.9884 21.6927 33.2499 21.7394C34.4175 21.9169 35.3795 22.3045 36.1361 22.9023C36.902 23.5001 37.4671 24.2567 37.8314 25.1721C38.205 26.0781 38.3918 27.0869 38.3918 28.1984C38.3918 29.8423 37.9762 31.2574 37.1449 32.4436C36.3136 33.6205 35.0386 34.3491 33.3199 34.6293L31.8769 34.7554H26.6789V41.8027H23.3023ZM34.8891 41.8027L30.9101 33.5925L34.3427 32.8359L38.7141 41.8027H34.8891ZM26.6789 31.603H31.4986C31.6854 31.603 31.8955 31.5936 32.129 31.5749C32.3626 31.5563 32.5774 31.5189 32.7735 31.4629C33.334 31.3227 33.773 31.0752 34.0905 30.7203C34.4175 30.3654 34.6463 29.9637 34.7771 29.5154C34.9172 29.067 34.9872 28.628 34.9872 28.1984C34.9872 27.7687 34.9172 27.3297 34.7771 26.8814C34.6463 26.4237 34.4175 26.0174 34.0905 25.6624C33.773 25.3075 33.334 25.06 32.7735 24.9199C32.5774 24.8638 32.3626 24.8311 32.129 24.8218C31.8955 24.8031 31.6854 24.7938 31.4986 24.7938H26.6789V31.603Z" fill="#77A7CA"/>
</svg>
